<?xml version="1.0" encoding="UTF-8" standalone="no"?>
<!DOCTYPE svg PUBLIC "-//W3C//DTD SVG 1.1//EN" "http://www.w3.org/Graphics/SVG/1.1/DTD/svg11.dtd">
<svg width="100%" height="100%" viewBox="0 0 839 161" version="1.1" xmlns="http://www.w3.org/2000/svg" xmlns:xlink="http://www.w3.org/1999/xlink" xml:space="preserve" xmlns:serif="http://www.serif.com/" style="fill-rule:evenodd;clip-rule:evenodd;stroke-linejoin:round;stroke-miterlimit:2;">
    <g transform="matrix(1,0,0,1,-1040,-193)">
        <g transform="matrix(1,0,0,1,1036.43,0)">
            <g transform="matrix(2.94127,0,0,2.92396,-516.375,-348.296)">
                <g transform="matrix(-0.877768,1.8679,1.8679,0.877768,-1666.75,-1745.8)">
                    <path d="M461.148,1218.51L467.191,1218.51L482.423,1235.72L479.9,1241.09L461.148,1218.51Z" style="fill:rgb(76,78,82);fill-rule:nonzero;"/>
                </g>
                <g transform="matrix(-0.879166,1.86725,1.86725,0.879166,-1629.31,-1770.03)">
                    <path d="M473.379,1218.5L479.424,1218.5L494.642,1235.73L492.113,1241.1L473.379,1218.5Z" style="fill:rgb(76,78,82);fill-rule:nonzero;"/>
                </g>
                <g transform="matrix(2.06387,0,0,2.06387,-757.496,-2309.44)">
                    <path d="M452.691,1235.27L458.652,1235.27L460.59,1231.17L468.875,1231.17L462.059,1215.35L452.691,1235.27Z" style="fill:rgb(116,181,0);fill-rule:nonzero;"/>
                </g>
            </g>
            <g transform="matrix(14.5373,0,0,5.2915,-5059.31,-35.6606)">
                <path d="M370.623,65.63L367.537,65.63L367.041,69.919L364.996,69.919L367.997,47.779L370.175,47.779L373.176,69.919L371.131,69.919L370.623,65.63ZM368.045,61.309L370.114,61.309L369.086,51.967L368.045,61.309Z" style="fill:rgb(76,78,82);fill-rule:nonzero;"/>
                <rect x="374.324" y="47.779" width="1.984" height="22.14" style="fill:rgb(76,78,82);fill-rule:nonzero;"/>
                <path d="M379.409,55.229C379.602,55.791 379.748,56.354 379.847,56.917C379.917,57.306 380.034,58.329 380.195,59.985L380.715,57.842C380.853,57.323 381.02,56.828 381.217,56.357C381.414,55.886 381.588,55.564 381.737,55.391C381.832,55.283 381.936,55.229 382.05,55.229C382.22,55.229 382.355,55.353 382.455,55.602C382.556,55.851 382.606,56.154 382.606,56.511C382.606,56.922 382.576,57.204 382.517,57.355C382.407,57.626 382.281,57.761 382.139,57.761C382.056,57.761 381.968,57.712 381.873,57.615C381.688,57.442 381.564,57.355 381.501,57.355C381.406,57.355 381.294,57.507 381.164,57.81C380.92,58.372 380.628,59.46 380.29,61.072L380.774,66.656C380.849,67.511 380.912,68.022 380.963,68.19C381.014,68.358 381.066,68.442 381.117,68.442C381.2,68.442 381.296,68.317 381.406,68.068C381.623,67.571 381.808,66.921 381.962,66.121L382.169,66.413C381.92,67.69 381.605,68.75 381.223,69.594C381.007,70.07 380.823,70.308 380.674,70.308C380.453,70.308 380.278,69.968 380.148,69.286C380.065,68.864 379.894,67.046 379.634,63.832C379.019,66.764 378.527,68.653 378.157,69.497C377.916,70.038 377.684,70.308 377.46,70.308C377.302,70.308 377.158,70.151 377.028,69.838C376.934,69.6 376.886,69.28 376.886,68.88C376.886,68.523 376.93,68.225 377.016,67.987C377.103,67.749 377.209,67.63 377.335,67.63C377.461,67.63 377.595,67.803 377.737,68.15C377.84,68.398 377.918,68.523 377.974,68.523C378.021,68.523 378.082,68.436 378.157,68.263C378.342,67.852 378.594,66.965 378.913,65.601C379.232,64.238 379.441,63.253 379.539,62.647C379.295,60.017 379.163,58.627 379.143,58.475C379.053,57.772 378.935,57.274 378.789,56.982C378.643,56.69 378.428,56.544 378.145,56.544C378.054,56.544 377.95,56.554 377.832,56.576L377.832,55.992L379.409,55.229Z" style="fill:rgb(56,136,35);fill-rule:nonzero;"/>
                <path d="M388.866,66.395L386.954,66.395L385.381,57.519L385.139,69.919L383.191,69.919L383.796,47.779L385.587,47.779L387.91,61.309L390.233,47.779L392.024,47.779L392.629,69.919L390.681,69.919L390.439,57.519L388.866,66.395Z" style="fill:rgb(76,78,82);fill-rule:nonzero;"/>
                <path d="M396.645,53.297C397.42,53.297 398.033,53.923 398.485,55.175C398.936,56.428 399.162,58.162 399.162,60.378C399.162,61.22 399.126,62.118 399.053,63.071L395.617,63.071C395.633,64.068 395.756,64.871 395.986,65.481C396.216,66.09 396.569,66.395 397.045,66.395C397.335,66.395 397.639,66.323 397.958,66.179C398.277,66.035 398.553,65.819 398.787,65.531L399.029,68.955C398.722,69.376 398.378,69.697 397.994,69.919C397.611,70.14 397.214,70.251 396.803,70.251C396.286,70.251 395.83,70.046 395.435,69.636C395.04,69.226 394.709,68.656 394.443,67.924C394.177,67.193 393.975,66.317 393.838,65.298C393.701,64.279 393.632,63.148 393.632,61.907C393.632,60.577 393.703,59.381 393.844,58.317C393.985,57.253 394.187,56.35 394.449,55.608C394.711,54.865 395.028,54.294 395.399,53.896C395.77,53.497 396.185,53.297 396.645,53.297ZM396.585,56.688C396.278,56.688 396.042,56.959 395.877,57.502C395.711,58.045 395.629,58.793 395.629,59.746L397.347,59.746C397.363,59.569 397.371,59.381 397.371,59.181C397.371,58.472 397.303,57.879 397.166,57.403C397.028,56.926 396.835,56.688 396.585,56.688Z" style="fill:rgb(76,78,82);fill-rule:nonzero;"/>
                <path d="M405.914,69.919L404.063,69.919L404.063,67.858C403.877,68.589 403.637,69.171 403.343,69.603C403.048,70.035 402.695,70.251 402.284,70.251C401.953,70.251 401.643,70.057 401.352,69.669C401.062,69.282 400.81,68.728 400.596,68.007C400.382,67.287 400.215,66.417 400.094,65.398C399.973,64.378 399.912,63.237 399.912,61.974C399.912,60.555 399.995,59.303 400.16,58.217C400.326,57.131 400.548,56.223 400.826,55.491C401.104,54.76 401.429,54.211 401.8,53.846C402.171,53.48 402.566,53.297 402.986,53.297C403.196,53.297 403.381,53.336 403.542,53.414C403.704,53.491 403.849,53.585 403.978,53.696L403.978,46.449L405.914,46.449L405.914,69.919ZM402.986,66.162C403.397,66.162 403.728,65.786 403.978,65.032L403.978,57.552C403.801,57.375 403.571,57.286 403.288,57.286C402.804,57.286 402.443,57.696 402.205,58.516C401.967,59.336 401.848,60.456 401.848,61.874C401.848,63.137 401.939,64.168 402.121,64.966C402.302,65.763 402.591,66.162 402.986,66.162Z" style="fill:rgb(76,78,82);fill-rule:nonzero;"/>
            </g>
        </g>
    </g>
</svg>
